# xmcd
#
# Track frame offsets: 
#        150
#        22951
#        44201
#        63144
#        81095
#        101918
#        121655
#        141706
#        163949
#        186209
#        201948
#
# Disc length: 3105 seconds
#
# Revision: 2
# Processed by: cddbd v1.5.2PL0 Copyright (c) Steve Scherf et al.
# Submitted via: ExactAudioCopy v1.3
#
DISCID=a10c1f0b
DTITLE=Anael - Light of Refinement
DYEAR=1900
DGENRE=New Age
TTITLE0=Alien Mind¡@ 
TTITLE1=Upon a Restless Night¡@ 
TTITLE2=To Lift You
TTITLE3=Birthing Clouds¡@ 
TTITLE4=Kyrie¡@ 
TTITLE5=One Brief Dream¡@ 
TTITLE6=My Lifetime¡@ 
TTITLE7=In Silence¡@ 
TTITLE8=Dona Nobis Pacem¡@ 
TTITLE9=Born of Forgiveness¡@ 
TTITLE10=The Road (Send Some Love)¡@
EXTD=
EXTT0=
EXTT1=
EXTT2=
EXTT3=
EXTT4=
EXTT5=
EXTT6=
EXTT7=
EXTT8=
EXTT9=
EXTT10=
PLAYORDER=
